<svg id="Capa_1" data-name="Capa 1" xmlns="http://www.w3.org/2000/svg" xmlns:xlink="http://www.w3.org/1999/xlink" viewBox="0 0 250 90"><defs><style>.cls-1{fill:none;}.cls-2{fill:#fff;}.cls-3{opacity:0.8;}.cls-4{clip-path:url(#clip-path);}</style><clipPath id="clip-path"><rect class="cls-1" x="51.43" y="68.88" width="143.55" height="6.97"/></clipPath></defs><path class="cls-2" d="M42.25,54.77H33.31v-.41c1.51-1.51,1-3.54-.58-7.77l-2.84-7.37H15.5l-1.56,4.41c-1.86,5.28-2.15,8.12.29,10.73v.41H7.38v-.41c2.5-2.61,4.18-5.28,6.09-10.73l8.7-24.48-1.91-5h4.58L36.16,43.63c2.37,5.8,3.88,8.12,6.09,10.73Zm-12.53-16-7.31-19-6.73,19Z"/><path class="cls-2" d="M87.21,14.16v.46a8.13,8.13,0,0,0-3.66,6.5V54.77h-.87L55.07,19.44V47.8c0,2.5,1.74,5.57,3.71,6.56v.41H51v-.41c2-1,3.71-4.06,3.71-6.56V18.91L51,14.16h5.86l26.28,33.3V21.12a8.13,8.13,0,0,0-3.66-6.5v-.46Z"/><path class="cls-2" d="M128.34,18v32.9c0,2,.4,2.9,1.27,3.42v.41h-7.19v-.41c.93-.52,1.33-1.39,1.33-3.42v-20H103.56v20c0,2,.41,2.9,1.28,3.42v.41H97.65v-.41C98.58,53.84,99,53,99,50.94V18c0-2-.4-2.9-1.33-3.42v-.46h7.19v.46c-.87.52-1.28,1.39-1.28,3.42V30.52h20.19V18c0-2-.4-2.9-1.33-3.42v-.46h7.19v.46c-.87.52-1.27,1.39-1.27,3.42"/><path class="cls-2" d="M164.88,47.75l-1.27,7H140.05v-.41c.87-.52,1.28-1.39,1.28-3.42V18c0-2-.41-2.9-1.28-3.42v-.46h21.7L163,20.6l-.29.23c-2.67-3-6.27-6.21-12.71-6.21h-4.06V31.74l14.62-1.28v3L145.91,32.2V54.36h4.7a17.56,17.56,0,0,0,13.92-6.84Z"/><path class="cls-2" d="M200.21,47.75l-1.27,7h-24.2v-.41c.93-.52,1.34-1.39,1.34-3.42V18c0-2.08-.41-2.9-1.34-3.42v-.46h7.2v.46c-.87.52-1.28,1.34-1.28,3.42V54.36h5.28a17.47,17.47,0,0,0,13.92-6.84Z"/><path class="cls-2" d="M242.62,54.77h-8.93v-.41c1.5-1.51,1-3.54-.58-7.77l-2.85-7.37H215.87l-1.56,4.41c-1.86,5.28-2.15,8.12.29,10.73v.41h-6.85v-.41c2.5-2.61,4.18-5.28,6.09-10.73l8.71-24.48-1.92-5h4.58l11.32,29.47c2.38,5.8,3.88,8.12,6.09,10.73Zm-12.53-16-7.31-19-6.73,19Z"/><g class="cls-3"><g class="cls-4"><polygon class="cls-2" points="51.43 69.06 52.54 69.06 54.27 74.14 54.42 74.58 56.41 69.06 57.54 69.06 59.55 74.57 59.69 74.14 61.42 69.06 62.48 69.06 60.11 75.65 58.95 75.65 57.13 70.69 56.95 70.14 56.78 70.7 54.95 75.65 53.79 75.65 51.43 69.06"/><polygon class="cls-2" points="64.07 69.06 69.92 69.06 69.92 69.88 65.12 69.88 65.12 71.87 69.23 71.87 69.23 72.69 65.12 72.69 65.12 74.83 70 74.83 70 75.65 64.07 75.65 64.07 69.06"/><polygon class="cls-2" points="71.94 69.06 72.99 69.06 72.99 74.83 77.64 74.83 77.64 75.65 71.94 75.65 71.94 69.06"/><polygon class="cls-2" points="79.36 69.06 80.41 69.06 80.41 74.83 85.06 74.83 85.06 75.65 79.36 75.65 79.36 69.06"/><polygon class="cls-2" points="86.78 69.06 87.88 69.06 92.27 74.02 92.66 74.42 92.63 73.96 92.63 69.06 93.58 69.06 93.58 75.65 92.49 75.65 88.09 70.7 87.7 70.3 87.73 70.76 87.73 75.65 86.78 75.65 86.78 69.06"/><polygon class="cls-2" points="95.96 69.06 101.81 69.06 101.81 69.88 97.01 69.88 97.01 71.87 101.12 71.87 101.12 72.69 97.01 72.69 97.01 74.83 101.89 74.83 101.89 75.65 95.96 75.65 95.96 69.06"/><path class="cls-2" d="M105.18,75.68a6.91,6.91,0,0,1-1.19-.4,6.57,6.57,0,0,1-.89-.5l.48-.7a5.46,5.46,0,0,0,.84.46,6.9,6.9,0,0,0,1,.34,4.83,4.83,0,0,0,1,.12,3.39,3.39,0,0,0,1.55-.27.88.88,0,0,0,.5-.83.83.83,0,0,0-.18-.55,1.42,1.42,0,0,0-.57-.34,5.46,5.46,0,0,0-1-.22l-1.08-.18a5,5,0,0,1-1.41-.39,1.54,1.54,0,0,1-1-1.5,1.5,1.5,0,0,1,.78-1.4,4.14,4.14,0,0,1,2.08-.45,6.5,6.5,0,0,1,1.63.2,5.14,5.14,0,0,1,1.43.61l-.36.69a4.91,4.91,0,0,0-2.68-.68,3.13,3.13,0,0,0-1.38.24.83.83,0,0,0-.47.79.77.77,0,0,0,.21.59,1.07,1.07,0,0,0,.49.29c.19.05.46.1.79.16l1.46.26a5.66,5.66,0,0,1,1.33.34,1.68,1.68,0,0,1,.76.57,1.56,1.56,0,0,1,.25.92,1.59,1.59,0,0,1-.86,1.52,4.5,4.5,0,0,1-2.21.47,5.67,5.67,0,0,1-1.38-.16"/><path class="cls-2" d="M112.66,75.68a6.91,6.91,0,0,1-1.19-.4,5.87,5.87,0,0,1-.88-.5l.47-.7a5.46,5.46,0,0,0,.84.46,6.9,6.9,0,0,0,1,.34,4.83,4.83,0,0,0,1,.12,3.39,3.39,0,0,0,1.55-.27.89.89,0,0,0,.51-.83.83.83,0,0,0-.19-.55,1.35,1.35,0,0,0-.57-.34,5.46,5.46,0,0,0-1-.22l-1.08-.18a5,5,0,0,1-1.41-.39,1.73,1.73,0,0,1-.74-.62,1.67,1.67,0,0,1-.23-.88,1.5,1.5,0,0,1,.78-1.4,4.17,4.17,0,0,1,2.08-.45,6.5,6.5,0,0,1,1.63.2,5.14,5.14,0,0,1,1.43.61l-.36.69a4.89,4.89,0,0,0-2.68-.68,3.16,3.16,0,0,0-1.38.24.83.83,0,0,0-.47.79.77.77,0,0,0,.21.59,1.07,1.07,0,0,0,.49.29c.19.05.46.1.8.16l1.45.26a5.66,5.66,0,0,1,1.33.34,1.63,1.63,0,0,1,.76.57,1.56,1.56,0,0,1,.25.92,1.59,1.59,0,0,1-.86,1.52,4.5,4.5,0,0,1-2.21.47,5.67,5.67,0,0,1-1.38-.16"/><path class="cls-2" d="M126.7,75.59a2,2,0,0,1-.93-.65,1.6,1.6,0,0,1,.14-2.06,3.89,3.89,0,0,1,1.37-.85,4.09,4.09,0,0,1-.74-.78,1.48,1.48,0,0,1-.27-.85,1.2,1.2,0,0,1,.28-.78,1.72,1.72,0,0,1,.74-.49,3.24,3.24,0,0,1,2,0,1.63,1.63,0,0,1,.72.48,1.14,1.14,0,0,1,.27.76,1.39,1.39,0,0,1-.48,1,4.12,4.12,0,0,1-1.21.77l.85.74,1.35,1.16a2.9,2.9,0,0,0,.45-.79,3.62,3.62,0,0,0,.21-1l.81.06a3.69,3.69,0,0,1-.28,1.22,3.54,3.54,0,0,1-.6,1,3.33,3.33,0,0,0,.49.38.89.89,0,0,0,.4.17v.57a1.72,1.72,0,0,1-.79-.16,2.51,2.51,0,0,1-.71-.47,2.82,2.82,0,0,1-1.12.61,5.07,5.07,0,0,1-1.51.2,4.09,4.09,0,0,1-1.49-.23m2.63-.59a3,3,0,0,0,.89-.46l-2.4-2.07a2.71,2.71,0,0,0-1,.63,1.13,1.13,0,0,0-.34.79,1,1,0,0,0,.22.67,1.44,1.44,0,0,0,.66.43,3.15,3.15,0,0,0,1,.15,3,3,0,0,0,1-.14m-.43-3.64a1.45,1.45,0,0,0,.41-.41,1.12,1.12,0,0,0,.12-.53.73.73,0,0,0-.29-.63,1.29,1.29,0,0,0-.82-.23,1.36,1.36,0,0,0-.83.23.76.76,0,0,0-.3.64.87.87,0,0,0,.08.4,1.5,1.5,0,0,0,.28.41,6.69,6.69,0,0,0,.57.52,5.49,5.49,0,0,0,.78-.4"/><path class="cls-2" d="M137.8,69.06h4c1.55,0,2.32.56,2.32,1.69a1.22,1.22,0,0,1-.42,1,2.24,2.24,0,0,1-1.08.48v0a2.44,2.44,0,0,1,1.25.49,1.34,1.34,0,0,1,.47,1.08,1.59,1.59,0,0,1-.63,1.36,3.3,3.3,0,0,1-2,.47H137.8Zm3.78,2.85a3.14,3.14,0,0,0,.72-.07,1,1,0,0,0,.53-.3,1,1,0,0,0,.21-.67,1,1,0,0,0-.21-.69,1,1,0,0,0-.55-.29,3.46,3.46,0,0,0-.78-.07h-2.66v2.09Zm-.2,3a5.74,5.74,0,0,0,1.05-.08,1.07,1.07,0,0,0,.62-.33,1.16,1.16,0,0,0,.21-.75.95.95,0,0,0-.78-1,3.84,3.84,0,0,0-.9-.08h-2.74v2.28Z"/><path class="cls-2" d="M151.51,74.15h-4.22l-.73,1.5h-1.11l3.36-6.59H150l3.37,6.59h-1.14Zm-.37-.76-1.74-3.55-1.73,3.55Z"/><polygon class="cls-2" points="154.94 69.06 155.99 69.06 155.99 74.83 160.63 74.83 160.63 75.65 154.94 75.65 154.94 69.06"/><path class="cls-2" d="M167.6,74.15h-4.22l-.73,1.5h-1.11l3.36-6.59h1.21l3.37,6.59h-1.14Zm-.37-.76-1.74-3.55-1.73,3.55Z"/><polygon class="cls-2" points="171.03 69.06 172.13 69.06 176.52 74.02 176.91 74.42 176.88 73.96 176.88 69.06 177.83 69.06 177.83 75.65 176.74 75.65 172.34 70.7 171.96 70.3 171.98 70.76 171.98 75.65 171.03 75.65 171.03 69.06"/><path class="cls-2" d="M181.49,75.41a3.25,3.25,0,0,1-1.4-1.21,3.6,3.6,0,0,1,0-3.66,3.27,3.27,0,0,1,1.39-1.23,4.69,4.69,0,0,1,2.06-.44,5.12,5.12,0,0,1,1.66.26,3,3,0,0,1,1.23.78,2.66,2.66,0,0,1,.69,1.28l-1.06.09a1.82,1.82,0,0,0-.88-1.2,3.29,3.29,0,0,0-1.6-.36,3.44,3.44,0,0,0-1.5.31,2.38,2.38,0,0,0-1,.91,2.6,2.6,0,0,0-.37,1.41,2.64,2.64,0,0,0,.37,1.42,2.39,2.39,0,0,0,1,.92,3.61,3.61,0,0,0,1.55.31,3.2,3.2,0,0,0,1.55-.36,1.84,1.84,0,0,0,.86-1.2l1.06.08a2.62,2.62,0,0,1-.69,1.28,3,3,0,0,1-1.23.78,5.24,5.24,0,0,1-3.71-.17"/><polygon class="cls-2" points="189.05 69.06 194.9 69.06 194.9 69.88 190.1 69.88 190.1 71.87 194.21 71.87 194.21 72.69 190.1 72.69 190.1 74.83 194.98 74.83 194.98 75.65 189.05 75.65 189.05 69.06"/></g></g></svg>